<svg class="svg-icon" style="width: 1.001953125em; height: 1em;vertical-align: middle;fill: currentColor;overflow: hidden;" viewBox="0 0 1026 1024" version="1.1" xmlns="http://www.w3.org/2000/svg"><path d="M 274.186 713.895 a 64.7859 64.7859 0 0 0 64.1361 75.9138 a 66.5079 66.5079 0 0 0 12.4926 -1.1859 C 467.862 766.302 474.035 760.178 480.517 753.777 l 532.599 -532.664 a 48.5732 48.5732 0 0 0 13.6785 -38.3712 a 57.3618 57.3618 0 0 0 -16.83 -35.7394 l -96.1391 -96.2203 c -21.3299 -21.3137 -54.6001 -22.7433 -74.1918 -3.15157 L 307.034 580.23 c -6.6118 6.6118 -12.85 12.8662 -32.8478 133.666 Z m 48.0858 7.96015 c 13.3211 -80.5275 19.6729 -103.547 21.8336 -109.769 l 529.594 -529.594 a 8.1226 8.1226 0 0 1 5.68582 2.71295 l 96.1553 96.1553 a 8.1226 8.1226 0 0 1 2.71295 5.68582 L 448.481 716.82 c -5.89701 2.20935 -28.0555 8.91862 -106.796 23.9292 a 16.1477 16.1477 0 0 1 -19.4942 -18.8932 Z" fill="#231815" /><path d="M 991.51 354.145 a 32.4904 32.4904 0 0 0 -32.4904 32.4904 v 446.061 a 126.453 126.453 0 0 1 -126.323 126.323 H 191.287 A 126.453 126.453 0 0 1 64.9808 832.697 V 191.287 A 126.453 126.453 0 0 1 191.287 64.9808 h 475.286 a 32.4904 32.4904 0 0 0 0 -64.9808 H 191.287 A 191.498 191.498 0 0 0 0 191.287 v 641.409 a 191.515 191.515 0 0 0 191.287 191.303 h 641.409 a 191.531 191.531 0 0 0 191.303 -191.303 V 386.636 a 32.4904 32.4904 0 0 0 -32.4904 -32.4904 Z" fill="#231815" /></svg>